<svg width="169" height="57" viewBox="0 0 169 57" fill="none" xmlns="http://www.w3.org/2000/svg">
    <path d="M44.9606 27.3754C44.9606 34.7565 38.6525 40.9393 30.6195 40.9393C22.5864 40.9393 16.2783 34.7565 16.2783 27.3754C16.2783 19.9943 22.5864 13.8115 30.6195 13.8115C38.6525 13.8115 44.9606 19.9943 44.9606 27.3754Z" stroke="#6EE195" stroke-width="5"/>
    <path d="M40.1739 17.4783L29.7096 28.8852L37.091 2.60889L40.1739 17.4783Z" fill="#6EE195"/>
    <path d="M16.4031 22.7337L31.2198 28.2116L2.80878 30.5826L16.4031 22.7337Z" fill="#6EE195"/>
    <path d="M31.1304 42.7509L30.0735 27.6271L44.3333 51.1858L31.1304 42.7509Z" fill="#6EE195"/>
    <path d="M72.3079 24.7575C72.2073 24.3846 72.0593 24.0561 71.864 23.772C71.6687 23.482 71.429 23.2364 71.1449 23.0352C70.8608 22.8339 70.5353 22.683 70.1683 22.5824C69.8014 22.4759 69.3989 22.4226 68.9609 22.4226C68.0791 22.4226 67.3156 22.6357 66.6705 23.0618C66.0312 23.4879 65.5371 24.1094 65.1879 24.9261C64.8387 25.737 64.6641 26.7224 64.6641 27.8825C64.6641 29.0484 64.8327 30.0427 65.1701 30.8654C65.5075 31.6881 65.9957 32.3155 66.6349 32.7475C67.2741 33.1796 68.0495 33.3956 68.9609 33.3956C69.7659 33.3956 70.4465 33.2654 71.0028 33.005C71.5651 32.7386 71.9912 32.3628 72.2812 31.8775C72.5713 31.3922 72.7163 30.821 72.7163 30.1641L73.533 30.2617H69.1119V27.0568H76.951V29.4627C76.951 31.0903 76.6048 32.4841 75.9123 33.6442C75.2257 34.8042 74.2788 35.695 73.0714 36.3164C71.8699 36.9379 70.4879 37.2486 68.9254 37.2486C67.1913 37.2486 65.6673 36.8728 64.3533 36.1211C63.0394 35.3694 62.0155 34.2982 61.2816 32.9073C60.5477 31.5105 60.1808 29.8533 60.1808 27.9357C60.1808 26.4442 60.4027 25.1214 60.8466 23.9673C61.2905 22.8073 61.909 21.8248 62.7021 21.0199C63.5011 20.215 64.4244 19.6054 65.4719 19.1911C66.5255 18.7768 67.6589 18.5696 68.8722 18.5696C69.9257 18.5696 70.9052 18.7205 71.8107 19.0224C72.7222 19.3242 73.5271 19.7504 74.2255 20.3008C74.9298 20.8512 75.5009 21.5052 75.9389 22.2628C76.3769 23.0204 76.6491 23.8519 76.7557 24.7575H72.3079ZM84.5411 37V18.8182H92.0518C93.413 18.8182 94.5879 19.0638 95.5763 19.555C96.5706 20.0404 97.337 20.7388 97.8756 21.6502C98.4142 22.5558 98.6835 23.63 98.6835 24.8729C98.6835 26.1335 98.4083 27.2048 97.8579 28.0866C97.3074 28.9626 96.5262 29.6314 95.5141 30.093C94.502 30.5488 93.3035 30.7766 91.9186 30.7766H87.1689V27.3143H91.1018C91.7647 27.3143 92.3181 27.2285 92.762 27.0568C93.2118 26.8793 93.5521 26.6129 93.7829 26.2578C94.0138 25.8968 94.1292 25.4351 94.1292 24.8729C94.1292 24.3106 94.0138 23.846 93.7829 23.479C93.5521 23.1062 93.2118 22.828 92.762 22.6445C92.3122 22.4551 91.7588 22.3604 91.1018 22.3604H88.9356V37H84.5411ZM94.7773 28.6903L99.305 37H94.5109L90.072 28.6903H94.7773ZM106.094 37V18.8182H118.771V22.3871H110.488V26.1158H118.123V29.6935H110.488V33.4311H118.771V37H106.094ZM143.027 25.4055H138.589C138.529 24.9498 138.408 24.5385 138.225 24.1715C138.041 23.8046 137.798 23.4909 137.497 23.2305C137.195 22.9701 136.837 22.7718 136.422 22.6357C136.014 22.4936 135.561 22.4226 135.064 22.4226C134.182 22.4226 133.422 22.6386 132.782 23.0707C132.149 23.5027 131.661 24.1271 131.318 24.9439C130.98 25.7607 130.812 26.7491 130.812 27.9091C130.812 29.1165 130.983 30.1286 131.326 30.9453C131.676 31.7562 132.164 32.3687 132.791 32.783C133.425 33.1914 134.173 33.3956 135.037 33.3956C135.523 33.3956 135.964 33.3335 136.36 33.2092C136.763 33.0849 137.115 32.9044 137.417 32.6676C137.724 32.425 137.976 32.132 138.171 31.7887C138.372 31.4395 138.512 31.0459 138.589 30.608L143.027 30.6346C142.95 31.4395 142.717 32.2326 142.326 33.0138C141.941 33.7951 141.412 34.5083 140.737 35.1534C140.062 35.7926 139.24 36.3016 138.269 36.6804C137.304 37.0592 136.197 37.2486 134.949 37.2486C133.303 37.2486 131.83 36.8875 130.527 36.1655C129.231 35.4375 128.207 34.3781 127.456 32.9872C126.704 31.5964 126.328 29.9036 126.328 27.9091C126.328 25.9086 126.71 24.2129 127.473 22.8221C128.237 21.4312 129.27 20.3748 130.572 19.6527C131.874 18.9306 133.333 18.5696 134.949 18.5696C136.049 18.5696 137.067 18.7235 138.003 19.0312C138.938 19.3331 139.76 19.777 140.471 20.3629C141.181 20.9429 141.758 21.6561 142.202 22.5025C142.646 23.3488 142.921 24.3165 143.027 25.4055ZM167.703 27.9091C167.703 29.9096 167.318 31.6052 166.549 32.9961C165.779 34.387 164.738 35.4434 163.424 36.1655C162.116 36.8875 160.648 37.2486 159.02 37.2486C157.387 37.2486 155.916 36.8846 154.608 36.1566C153.3 35.4286 152.261 34.3722 151.492 32.9872C150.729 31.5964 150.347 29.9036 150.347 27.9091C150.347 25.9086 150.729 24.2129 151.492 22.8221C152.261 21.4312 153.3 20.3748 154.608 19.6527C155.916 18.9306 157.387 18.5696 159.02 18.5696C160.648 18.5696 162.116 18.9306 163.424 19.6527C164.738 20.3748 165.779 21.4312 166.549 22.8221C167.318 24.2129 167.703 25.9086 167.703 27.9091ZM163.211 27.9091C163.211 26.7254 163.042 25.7251 162.705 24.9084C162.373 24.0916 161.894 23.4731 161.267 23.0529C160.645 22.6327 159.896 22.4226 159.02 22.4226C158.15 22.4226 157.402 22.6327 156.774 23.0529C156.147 23.4731 155.665 24.0916 155.327 24.9084C154.996 25.7251 154.83 26.7254 154.83 27.9091C154.83 29.0928 154.996 30.093 155.327 30.9098C155.665 31.7266 156.147 32.3451 156.774 32.7653C157.402 33.1855 158.15 33.3956 159.02 33.3956C159.896 33.3956 160.645 33.1855 161.267 32.7653C161.894 32.3451 162.373 31.7266 162.705 30.9098C163.042 30.093 163.211 29.0928 163.211 27.9091Z" fill="white"/>
</svg>
